<svg width="50" height="50" viewBox="0 0 50 50" fill="none" xmlns="http://www.w3.org/2000/svg">
<path d="M35.4167 20.8333C37.6268 20.8333 39.7464 21.7113 41.3092 23.2741C42.872 24.8369 43.75 26.9565 43.75 29.1667V39.5833C43.75 40.6884 43.311 41.7482 42.5296 42.5296C41.7482 43.311 40.6884 43.75 39.5833 43.75H10.4167C9.3116 43.75 8.25179 43.311 7.47039 42.5296C6.68899 41.7482 6.25 40.6884 6.25 39.5833V29.1667C6.25 26.9565 7.12797 24.8369 8.69078 23.2741C10.2536 21.7113 12.3732 20.8333 14.5833 20.8333V14.5833H18.75V20.8333H22.9167V14.5833H27.0833V20.8333H31.25V14.5833H35.4167V20.8333ZM14.5833 25C13.4783 25 12.4185 25.439 11.6371 26.2204C10.8557 27.0018 10.4167 28.0616 10.4167 29.1667V31.25H39.5833V29.1667C39.5833 28.0616 39.1443 27.0018 38.3629 26.2204C37.5815 25.439 36.5217 25 35.4167 25H14.5833ZM10.4167 35.4167V39.5833H39.5833V35.4167H10.4167ZM14.5833 8.33333C15.1359 8.33333 15.6658 8.11384 16.0565 7.72314C16.4472 7.33244 16.6667 6.80253 16.6667 6.25C17.2192 6.25 17.7491 6.46949 18.1398 6.86019C18.5305 7.25089 18.75 7.7808 18.75 8.33333V10.4167C18.75 10.9692 18.5305 11.4991 18.1398 11.8898C17.7491 12.2805 17.2192 12.5 16.6667 12.5C16.1141 12.5 15.5842 12.2805 15.1935 11.8898C14.8028 11.4991 14.5833 10.9692 14.5833 10.4167V8.33333ZM22.9167 8.33333C23.4692 8.33333 23.9991 8.11384 24.3898 7.72314C24.7805 7.33244 25 6.80253 25 6.25C25.5525 6.25 26.0824 6.46949 26.4731 6.86019C26.8638 7.25089 27.0833 7.7808 27.0833 8.33333V10.4167C27.0833 10.9692 26.8638 11.4991 26.4731 11.8898C26.0824 12.2805 25.5525 12.5 25 12.5C24.4475 12.5 23.9176 12.2805 23.5269 11.8898C23.1362 11.4991 22.9167 10.9692 22.9167 10.4167V8.33333ZM31.25 8.33333C31.8025 8.33333 32.3324 8.11384 32.7231 7.72314C33.1138 7.33244 33.3333 6.80253 33.3333 6.25C33.8859 6.25 34.4158 6.46949 34.8065 6.86019C35.1972 7.25089 35.4167 7.7808 35.4167 8.33333V10.4167C35.4167 10.9692 35.1972 11.4991 34.8065 11.8898C34.4158 12.2805 33.8859 12.5 33.3333 12.5C32.7808 12.5 32.2509 12.2805 31.8602 11.8898C31.4695 11.4991 31.25 10.9692 31.25 10.4167V8.33333Z"/>
</svg>
