<svg xmlns="http://www.w3.org/2000/svg" viewBox="0 0 647.94 997.59"><defs><style>.cls-1,.cls-2,.cls-3{fill:none;stroke-miterlimit:10;stroke-width:3px;}.cls-1{stroke:#30353f;}.cls-2{stroke:#6ca151;}.cls-3{stroke:#943038;}.cls-4{fill:#30353f;}</style></defs><g id="Camada_2" data-name="Camada 2"><g id="Camada_1-2" data-name="Camada 1"><line class="cls-1" x1="1.5" y1="499.26" x2="646.44" y2="499.26"/><polyline class="cls-2" points="646.44 499.18 646.44 973.91 1.5 973.91 1.5 498.93"/><polyline class="cls-3" points="1.5 498.93 1.5 23.32 646.44 23.32 646.44 499.18"/><path class="cls-3" d="M42.26,23.32A40.76,40.76,0,0,1,1.5,64.09"/><path class="cls-3" d="M605.68,23.32a40.76,40.76,0,0,0,40.76,40.77"/><path class="cls-2" d="M42.26,973.91A40.76,40.76,0,0,0,1.5,933.15"/><path class="cls-2" d="M605.68,973.91a40.76,40.76,0,0,1,40.76-40.76"/><path class="cls-1" d="M252.79,498.9a71.18,71.18,0,1,1,142.36,0"/><path class="cls-1" d="M395.15,498.9a71.18,71.18,0,1,1-142.36,0"/><circle class="cls-4" cx="323.97" cy="499.26" r="6.76"/><polyline class="cls-2" points="204.91 973.91 204.91 866.38 442.44 866.38 442.44 973.91"/><polyline class="cls-2" points="264.03 973.91 264.03 919.32 383.85 919.32 383.85 973.91"/><polyline class="cls-2" points="286.79 973.91 286.79 996.09 361.97 996.09 361.97 973.91"/><path class="cls-2" d="M266.5,866.38c19.76-23.47,49.59-21.7,60.88-21.53s38.65,2.65,54.53,21.53"/><polyline class="cls-3" points="205.21 23.68 205.21 131.21 442.74 131.21 442.74 23.68"/><polyline class="cls-3" points="264.32 23.68 264.32 78.27 384.15 78.27 384.15 23.68"/><polyline class="cls-3" points="287.09 23.68 287.09 1.5 362.26 1.5 362.26 23.68"/><path class="cls-3" d="M266.79,131.21c19.77,23.47,49.59,21.7,60.89,21.53s38.64-2.65,54.53-21.53"/></g></g></svg>