<svg width="84" height="84" viewBox="0 0 84 84" fill="none" xmlns="http://www.w3.org/2000/svg">
<path d="M76.4334 53.5043L67.0425 48.8088C64.6389 47.6162 62.6175 45.7742 61.2071 43.4916C59.7967 41.209 59.0538 38.577 59.0625 35.8938V26.2502C59.0625 25.2059 58.6477 24.2044 57.9092 23.466C57.1708 22.7276 56.1693 22.3127 55.125 22.3127C51.2973 22.3084 47.6276 20.7859 44.9209 18.0793C42.2143 15.3727 40.6918 11.703 40.6875 7.87523C40.6874 7.1423 40.4827 6.42397 40.0964 5.80106C39.7102 5.17816 39.1578 4.67542 38.5014 4.34942C37.8449 4.02342 37.1106 3.88711 36.3809 3.95582C35.6512 4.02453 34.9551 4.29554 34.3711 4.73835L9.10547 23.9041L9.00703 23.9796C8.29196 24.5583 7.70654 25.2808 7.28873 26.1003C6.87093 26.9198 6.63008 27.818 6.58181 28.7366C6.53355 29.6552 6.67894 30.5737 7.00856 31.4325C7.33818 32.2913 7.84467 33.0712 8.49516 33.7216L45.7964 71.036C46.1623 71.4016 46.5967 71.6914 47.0747 71.889C47.5527 72.0866 48.065 72.1881 48.5822 72.1877H73.5C75.2405 72.1877 76.9097 71.4963 78.1404 70.2656C79.3711 69.0349 80.0625 67.3657 80.0625 65.6252V59.3712C80.0664 58.1518 79.7284 56.9558 79.087 55.9187C78.4455 54.8817 77.5262 54.0453 76.4334 53.5043ZM72.1875 64.3127H50.2031L15.12 29.2198L19.3397 26.0173L32.8584 39.536C33.5981 40.2757 34.6014 40.6913 35.6475 40.6913C36.6936 40.6913 37.6969 40.2757 38.4366 39.536C39.1763 38.7963 39.5918 37.793 39.5918 36.7469C39.5918 35.7008 39.1763 34.6976 38.4366 33.9579L25.6758 21.2135L33.9577 14.9332C35.2328 18.7324 37.5042 22.1198 40.5349 24.7418C43.5656 27.3638 47.2444 29.1244 51.1875 29.8399V35.8938C51.1732 40.0405 52.3212 44.1082 54.5013 47.6356C56.6814 51.163 59.8063 54.0089 63.5217 55.8504L72.1875 60.1849V64.3127ZM18.2077 60.3752H10.5C9.45571 60.3752 8.45419 59.9604 7.71577 59.222C6.97734 58.4835 6.5625 57.482 6.5625 56.4377C6.5625 55.3934 6.97734 54.3919 7.71577 53.6535C8.45419 52.9151 9.45571 52.5002 10.5 52.5002H18.2077C19.2519 52.5002 20.2535 52.9151 20.9919 53.6535C21.7303 54.3919 22.1452 55.3934 22.1452 56.4377C22.1452 57.482 21.7303 58.4835 20.9919 59.222C20.2535 59.9604 19.2519 60.3752 18.2077 60.3752ZM33.9577 68.2502C33.9577 69.2945 33.5428 70.296 32.8044 71.0345C32.066 71.7729 31.0644 72.1877 30.0202 72.1877H15.75C14.7057 72.1877 13.7042 71.7729 12.9658 71.0345C12.2273 70.296 11.8125 69.2945 11.8125 68.2502C11.8125 67.2059 12.2273 66.2044 12.9658 65.466C13.7042 64.7276 14.7057 64.3127 15.75 64.3127H30.0202C31.0644 64.3127 32.066 64.7276 32.8044 65.466C33.5428 66.2044 33.9577 67.2059 33.9577 68.2502Z"/>
</svg>
