<svg width="63" height="63" viewBox="0 0 63 63" fill="none" xmlns="http://www.w3.org/2000/svg">
<path d="M55.9913 33.8891C56.2275 37.9579 54.3638 41.8691 51.03 44.2579L53.0513 48.1691C53.655 49.3504 53.7338 50.7416 53.2088 51.9754C52.71 53.2091 51.6863 54.1804 50.4263 54.6004L48.3525 55.2566C47.4889 55.5464 46.5571 55.5632 45.6835 55.3049C44.81 55.0466 44.0372 54.5257 43.47 53.8129L37.905 47.2504C35.5688 46.8566 33.3638 45.8591 31.5 44.3629C30.1875 44.7566 28.875 44.9666 27.5625 44.9666C25.2525 44.9666 22.9425 44.2579 21 42.8929C19.6088 43.3129 18.1913 43.4966 16.7475 43.4704C14.6738 43.4966 12.6263 43.0766 10.71 42.2891C8.86461 41.4674 7.28772 40.1429 6.15968 38.4671C5.03165 36.7913 4.39803 34.8319 4.33128 32.8129C4.12128 30.9229 4.43628 29.0066 5.25003 27.2741C4.48878 25.3054 4.41003 23.1529 5.06628 21.1579C6.03753 18.6641 7.87503 16.5904 10.1588 15.2779C11.6813 10.8416 15.96 7.87537 20.6588 8.19037C24.8588 4.25287 31.29 3.83287 35.9625 7.21912C37.065 6.93037 38.22 6.77287 39.375 6.77287C42.945 6.69412 46.3313 8.26912 48.5625 11.0779C53.9175 12.4691 57.75 17.2466 57.96 22.8116C58.0913 25.7254 57.3038 28.5866 55.7025 31.0279C55.8863 31.9729 55.9913 32.9179 55.9913 33.8891ZM42.8663 30.1879C44.3625 30.3716 45.5438 31.5004 45.5438 32.9966C45.5438 33.6928 45.2672 34.3605 44.7749 34.8528C44.2826 35.3451 43.615 35.6216 42.9188 35.6216H41.265C40.425 37.9841 38.955 40.0579 37.0125 41.6329C37.6688 41.8691 38.3513 42.0004 39.0338 42.1841C52.5 42.0004 50.925 33.7841 50.925 33.6529C50.8912 32.7598 50.6817 31.8822 50.3084 31.0702C49.9351 30.2583 49.4054 29.5278 48.7495 28.9208C48.0937 28.3137 47.3246 27.8419 46.4863 27.5323C45.6479 27.2227 44.7568 27.0815 43.8638 27.1166C43.1676 27.1166 42.4999 26.8401 42.0076 26.3478C41.5153 25.8555 41.2388 25.1878 41.2388 24.4916C41.2388 23.7954 41.5153 23.1277 42.0076 22.6355C42.4999 22.1432 43.1676 21.8666 43.8638 21.8666C47.0925 21.9454 50.19 23.1529 52.605 25.2791C52.7363 24.5179 52.815 23.7304 52.815 22.9429C52.6575 19.6879 51.1875 16.8529 45.2813 16.3016C42 8.53162 33.7313 12.8366 33.7313 15.2516C33.6525 15.8554 34.2825 17.1416 34.3875 17.2204C35.0837 17.2204 35.7514 17.4969 36.2437 17.9892C36.736 18.4815 37.0125 19.1492 37.0125 19.8454C37.0125 21.2891 35.8313 22.4704 34.3875 22.4704C32.9963 22.4179 31.6838 21.8929 30.6338 21.0004C29.3738 21.8141 27.93 22.3129 26.4338 22.4704C24.9375 22.6016 23.7038 21.5516 23.625 20.1079C23.5774 19.7651 23.6002 19.4162 23.692 19.0825C23.7838 18.7488 23.9426 18.4374 24.1588 18.1671C24.375 17.8969 24.644 17.6736 24.9494 17.5108C25.2548 17.348 25.5902 17.2492 25.935 17.2204C26.355 17.1679 28.4025 16.8529 28.4025 15.1991C28.4025 13.4666 29.0588 11.8129 30.1875 10.5004C27.7725 9.84412 25.1738 10.7104 22.5488 13.8866C17.7188 13.1254 15.75 13.7816 14.3063 18.9004C11.8125 20.1341 10.5 21.0004 9.92253 23.6254C12.7575 23.0479 15.6713 23.2841 18.375 24.2816C19.6875 24.7804 20.4225 26.2504 19.9238 27.6679C19.425 29.0329 17.9025 29.7154 16.5375 29.2166C14.6213 28.3766 12.4688 28.3241 10.5 29.0591C9.66003 29.7679 9.66003 31.2379 9.66003 32.3929C9.66003 34.3354 10.6313 36.1466 12.285 37.1966C13.6763 37.9054 15.225 38.2729 16.7738 38.2466C16.38 37.5641 16.0388 36.8554 15.75 36.1204C15.5434 35.4459 15.6063 34.7177 15.9256 34.0887C16.2449 33.4597 16.7957 32.9791 17.4621 32.7479C18.1285 32.5167 18.8586 32.5529 19.4989 32.849C20.1391 33.1451 20.6396 33.6779 20.895 34.3354C21.945 37.3279 24.6225 39.3754 27.7725 39.7166C31.3688 39.5329 34.5713 37.4066 36.1463 34.1254C36.75 30.5029 39.6638 30.1879 42.8663 30.1879ZM48.1163 49.7966L46.4888 46.3841L44.625 46.8041L47.25 50.0854L48.1163 49.7966ZM35.91 27.1954C35.9328 26.5248 35.698 25.8709 35.2538 25.3681C34.8095 24.8652 34.1896 24.5516 33.5213 24.4916C31.6575 24.3866 29.8463 25.0166 28.455 26.2504C26.9588 27.7729 26.1713 29.8729 26.25 31.9991C26.25 32.6953 26.5266 33.363 27.0189 33.8553C27.5112 34.3476 28.1788 34.6241 28.875 34.6241C30.3713 34.6241 31.5 33.4429 31.5 31.9991C31.5 31.2904 31.6838 30.5816 32.1038 30.0041C32.4188 29.7416 32.8125 29.6104 33.2325 29.6104C34.6763 29.6891 35.91 28.6129 35.91 27.1954Z"/>
</svg>
