<svg width="50" height="50" viewBox="0 0 50 50" fill="none" xmlns="http://www.w3.org/2000/svg">
<path d="M6.25 45.8332V24.9998C6.25 21.0707 6.25 19.1082 7.47083 17.8873C8.69167 16.6665 10.6542 16.6665 14.5833 16.6665C18.5125 16.6665 20.475 16.6665 21.6958 17.8873C22.9167 19.1082 22.9167 21.0707 22.9167 24.9998" stroke-width="3.125"/>
<path d="M35.4166 45.8333V33.3333C35.4166 29.4042 35.4166 27.4417 34.1958 26.2208C32.975 25 31.0125 25 27.0833 25H22.9166C18.9875 25 17.025 25 15.8041 26.2208C14.5833 27.4417 14.5833 29.4042 14.5833 33.3333V45.8333" stroke-width="3.125"/>
<path d="M43.75 45.8334V16.1917C43.75 13.4 43.75 12.0021 43.0083 10.9313C42.2666 9.86045 40.9583 9.36878 38.3416 8.38962C33.2271 6.47087 30.6708 5.51253 28.8771 6.7542C27.0833 8.00003 27.0833 10.7292 27.0833 16.1917V25" stroke-width="3.125"/>
<path d="M8.33332 16.6665V13.5415C8.33332 11.5769 8.33332 10.5957 8.94374 9.98525C9.55416 9.37484 10.5354 9.37484 12.5 9.37484H16.6667C18.6312 9.37484 19.6125 9.37484 20.2229 9.98525C20.8333 10.5957 20.8333 11.5769 20.8333 13.5415V16.6665M14.5833 8.33317V4.1665M45.8333 45.8332H4.16666M20.8333 31.2498H29.1667M20.8333 37.4998H29.1667" stroke-width="3.125" stroke-linecap="round"/>
</svg>
