<svg width="84" height="84" viewBox="0 0 84 84" fill="none" xmlns="http://www.w3.org/2000/svg">
<path d="M42 26.25C38.885 26.25 35.8399 27.1737 33.2498 28.9044C30.6597 30.635 28.641 33.0948 27.4489 35.9727C26.2568 38.8507 25.9449 42.0175 26.5527 45.0727C27.1604 48.1279 28.6604 50.9343 30.8631 53.1369C33.0658 55.3396 35.8722 56.8397 38.9274 57.4474C41.9826 58.0551 45.1494 57.7432 48.0273 56.5511C50.9052 55.359 53.365 53.3403 55.0957 50.7502C56.8263 48.1602 57.75 45.1151 57.75 42C57.7457 37.8242 56.0849 33.8206 53.1322 30.8679C50.1794 27.9151 46.1759 26.2543 42 26.25ZM42 52.5C39.9233 52.5 37.8933 51.8842 36.1665 50.7304C34.4398 49.5767 33.094 47.9368 32.2993 46.0182C31.5046 44.0996 31.2966 41.9884 31.7018 39.9516C32.1069 37.9148 33.107 36.0438 34.5754 34.5754C36.0439 33.1069 37.9148 32.1069 39.9516 31.7018C41.9884 31.2966 44.0996 31.5045 46.0182 32.2993C47.9368 33.094 49.5767 34.4398 50.7305 36.1665C51.8842 37.8932 52.5 39.9233 52.5 42C52.5 44.7848 51.3938 47.4555 49.4247 49.4246C47.4555 51.3938 44.7848 52.5 42 52.5ZM70.875 42.7088C70.8882 42.2363 70.8882 41.7637 70.875 41.2912L75.7707 35.175C76.0274 34.8539 76.205 34.4769 76.2894 34.0746C76.3737 33.6722 76.3624 33.2556 76.2563 32.8584C75.4538 29.8416 74.2532 26.9451 72.6863 24.2452C72.4811 23.8918 72.1963 23.5913 71.8545 23.3674C71.5127 23.1435 71.1234 23.0025 70.7175 22.9556L62.9344 22.0894C62.6107 21.7481 62.2825 21.42 61.95 21.105L61.0313 13.3022C60.984 12.896 60.8425 12.5065 60.6181 12.1647C60.3936 11.8229 60.0924 11.5382 59.7385 11.3334C57.0375 9.76938 54.1412 8.57004 51.1252 7.76672C50.7277 7.66105 50.311 7.65024 49.9087 7.73516C49.5063 7.82009 49.1295 7.99836 48.8086 8.25562L42.7088 13.125H41.2913L35.175 8.23922C34.8539 7.98252 34.477 7.80484 34.0746 7.72049C33.6722 7.63614 33.2557 7.64748 32.8585 7.75359C29.8422 8.55759 26.9458 9.75805 24.2452 11.3236C23.8919 11.5288 23.5913 11.8136 23.3674 12.1554C23.1435 12.4971 23.0026 12.8865 22.9557 13.2923L22.0894 21.0886C21.7482 21.4145 21.42 21.7427 21.105 22.073L13.3022 22.9687C12.896 23.016 12.5065 23.1575 12.1647 23.382C11.8229 23.6064 11.5383 23.9076 11.3335 24.2616C9.76941 26.9626 8.57007 29.8588 7.76675 32.8748C7.66108 33.2723 7.65027 33.689 7.73519 34.0914C7.82012 34.4938 7.99839 34.8706 8.25565 35.1914L13.125 41.2912V42.7088L8.23925 48.825C7.98255 49.1461 7.80487 49.5231 7.72052 49.9254C7.63617 50.3278 7.64751 50.7444 7.75362 51.1416C8.55614 54.1584 9.75669 57.0549 11.3236 59.7548C11.5288 60.1082 11.8136 60.4087 12.1554 60.6326C12.4972 60.8565 12.8865 60.9975 13.2924 61.0444L21.0755 61.9106C21.4014 62.2519 21.7296 62.58 22.0599 62.895L22.9688 70.6978C23.016 71.104 23.1575 71.4935 23.382 71.8353C23.6064 72.1771 23.9076 72.4618 24.2616 72.6666C26.9626 74.2306 29.8589 75.43 32.8749 76.2333C33.2723 76.339 33.689 76.3498 34.0914 76.2648C34.4938 76.1799 34.8706 76.0016 35.1914 75.7444L41.2913 70.875C41.7638 70.8881 42.2363 70.8881 42.7088 70.875L48.825 75.7706C49.1462 76.0273 49.5231 76.205 49.9255 76.2894C50.3278 76.3737 50.7444 76.3624 51.1416 76.2562C54.1584 75.4537 57.0549 74.2532 59.7549 72.6863C60.1082 72.4811 60.4088 72.1963 60.6326 71.8545C60.8565 71.5127 60.9975 71.1234 61.0444 70.7175L61.9107 62.9344C62.2519 62.6106 62.58 62.2825 62.895 61.95L70.6978 61.0313C71.104 60.984 71.4935 60.8425 71.8354 60.618C72.1772 60.3936 72.4618 60.0924 72.6666 59.7384C74.2307 57.0374 75.43 54.1412 76.2333 51.1252C76.339 50.7277 76.3498 50.311 76.2649 49.9086C76.1799 49.5062 76.0017 49.1294 75.7444 48.8086L70.875 42.7088ZM65.5922 40.5759C65.6479 41.5245 65.6479 42.4755 65.5922 43.4241C65.5531 44.0735 65.7566 44.7143 66.1632 45.2222L70.8193 51.0398C70.2849 52.7378 69.6008 54.3849 68.775 55.9617L61.3594 56.8017C60.7136 56.8734 60.1173 57.1821 59.686 57.668C59.0544 58.3784 58.3817 59.0511 57.6713 59.6827C57.1854 60.114 56.8767 60.7103 56.805 61.3561L55.9814 68.7652C54.4048 69.5914 52.7577 70.2756 51.0596 70.8094L45.2386 66.1533C44.7728 65.7811 44.1942 65.5786 43.598 65.5791H43.4405C42.4919 65.6348 41.5409 65.6348 40.5924 65.5791C39.943 65.54 39.3022 65.7434 38.7943 66.15L32.9602 70.8094C31.2623 70.2751 29.6152 69.591 28.0383 68.7652L27.1983 61.3594C27.1266 60.7136 26.818 60.1173 26.3321 59.6859C25.6216 59.0544 24.9489 58.3817 24.3174 57.6712C23.886 57.1853 23.2897 56.8767 22.6439 56.805L15.2349 55.9781C14.4086 54.4015 13.7245 52.7544 13.1907 51.0563L17.8467 45.2353C18.2533 44.7274 18.4568 44.0866 18.4177 43.4372C18.362 42.4886 18.362 41.5376 18.4177 40.5891C18.4568 39.9396 18.2533 39.2989 17.8467 38.7909L13.1907 32.9602C13.725 31.2622 14.4091 29.6151 15.2349 28.0383L22.6407 27.1983C23.2865 27.1266 23.8827 26.8179 24.3141 26.332C24.9456 25.6216 25.6184 24.9489 26.3288 24.3173C26.8166 23.8857 27.1265 23.2881 27.1983 22.6406L28.0219 15.2348C29.5985 14.4086 31.2457 13.7245 32.9438 13.1906L38.7647 17.8467C39.2726 18.2533 39.9134 18.4567 40.5628 18.4177C41.5114 18.3619 42.4624 18.3619 43.411 18.4177C44.0604 18.4567 44.7012 18.2533 45.2091 17.8467L51.0399 13.1906C52.7378 13.7249 54.3849 14.409 55.9618 15.2348L56.8018 22.6406C56.8734 23.2864 57.1821 23.8827 57.668 24.3141C58.3784 24.9456 59.0511 25.6183 59.6827 26.3287C60.1141 26.8147 60.7103 27.1233 61.3561 27.195L68.7652 28.0186C69.5915 29.5952 70.2756 31.2424 70.8094 32.9405L66.1533 38.7614C65.7428 39.2736 65.5391 39.921 65.5824 40.5759H65.5922Z"/>
</svg>
