<svg width="63" height="50" viewBox="0 0 63 50" fill="none" xmlns="http://www.w3.org/2000/svg">
<g clip-path="url(#clip0_521_298)">
<path d="M21.875 25C25.1902 25 28.3696 23.683 30.7138 21.3388C33.058 18.9946 34.375 15.8152 34.375 12.5C34.375 9.18479 33.058 6.00537 30.7138 3.66117C28.3696 1.31696 25.1902 0 21.875 0C18.5598 0 15.3804 1.31696 13.0362 3.66117C10.692 6.00537 9.375 9.18479 9.375 12.5C9.375 15.8152 10.692 18.9946 13.0362 21.3388C15.3804 23.683 18.5598 25 21.875 25ZM17.4121 29.6875C7.79297 29.6875 0 37.4805 0 47.0996C0 48.7012 1.29883 50 2.90039 50H40.8496C41.0254 50 41.1914 49.9805 41.3672 49.9512C33.916 44.5703 31.6211 36.1816 31.2988 30.4004C29.7266 29.9316 28.0664 29.6875 26.3477 29.6875H17.4219H17.4121ZM47.5684 22.041L35.8496 26.7285C34.9609 27.0898 34.375 27.9492 34.375 28.9063C34.375 35.0879 36.9043 45.3906 47.5391 49.8242C48.1152 50.0684 48.7695 50.0684 49.3457 49.8242C59.9707 45.3906 62.5 35.0879 62.5 28.9063C62.5 27.9492 61.9141 27.0898 61.0254 26.7285L49.3066 22.041C48.75 21.8164 48.125 21.8164 47.5684 22.041ZM57.7539 30.4688C57.3731 35.4199 55.0977 41.8652 48.4375 45.0879V26.748L57.7539 30.4688Z"/>
</g>
<defs>
<clipPath id="clip0_521_298">
<rect width="62.5" height="50" fill="white"/>
</clipPath>
</defs>
</svg>
