<svg width="62" height="62" viewBox="0 0 62 62" fill="none" xmlns="http://www.w3.org/2000/svg">
<path d="M46.1511 3.03906C47.805 2.60221 49.5444 2.59124 51.2068 3.00977L51.5378 3.09863C53.1816 3.57219 54.6801 4.45575 55.8923 5.66797L56.1306 5.91406C57.2986 7.16389 58.132 8.69105 58.5505 10.3535L58.6287 10.6865C58.9659 12.2472 58.929 13.8655 58.5212 15.4092L58.4285 15.7393C57.9348 17.3808 57.0327 18.8681 55.8093 20.0635L55.5603 20.2988C54.3111 21.4394 52.7971 22.2454 51.1589 22.6494V38.9102C52.7972 39.3141 54.311 40.1211 55.5603 41.2617C56.9106 42.4946 57.9019 44.0702 58.4285 45.8213L58.5212 46.1514C58.929 47.6951 58.9659 49.3134 58.6287 50.874L58.5505 51.207C58.104 52.9804 57.1854 54.5995 55.8923 55.8926C54.6801 57.1048 53.1816 57.9884 51.5378 58.4619L51.2068 58.5508C49.5444 58.9693 47.805 58.9583 46.1511 58.5215L45.821 58.4287C44.07 57.9021 42.4944 56.9109 41.2615 55.5605C40.1209 54.3113 39.3139 52.7974 38.9099 51.1592H22.6501C22.2734 52.6868 21.5465 54.1061 20.5251 55.3037L20.2986 55.5605C19.1427 56.8265 17.6856 57.7765 16.0652 58.3242L15.739 58.4287C14.0972 58.9224 12.3584 58.9903 10.6863 58.6289L10.3533 58.5508C8.69081 58.1322 7.16365 57.2988 5.91382 56.1309L5.66772 55.8926C4.4555 54.6804 3.57195 53.1818 3.09839 51.5381L3.00952 51.207C2.56308 49.4338 2.60503 47.5724 3.13159 45.8213L3.23608 45.4951C3.78381 43.8747 4.73383 42.4176 5.99976 41.2617L6.25659 41.0352C7.45419 40.0138 8.87352 39.2869 10.4011 38.9102V22.6494C8.87361 22.2727 7.45413 21.5467 6.25659 20.5254L5.99976 20.2988C4.73383 19.143 3.78381 17.6859 3.23608 16.0654L3.13159 15.7393C2.60504 13.9881 2.56309 12.1268 3.00952 10.3535L3.09839 10.0225C3.57194 8.37869 4.4555 6.8802 5.66772 5.66797L5.91382 5.42969C7.16365 4.26171 8.6908 3.42834 10.3533 3.00977L10.6863 2.93164C12.3584 2.57027 14.0972 2.63815 15.739 3.13184L16.0652 3.23633C17.6856 3.78406 19.1427 4.73408 20.2986 6L20.5251 6.25684C21.5465 7.45443 22.2735 8.87377 22.6501 10.4014H38.9099C39.3139 8.76313 40.1209 7.24928 41.2615 6L41.4968 5.75098C42.6922 4.52759 44.1795 3.62549 45.821 3.13184L46.1511 3.03906ZM12.825 43.4639C11.5142 43.4639 10.2539 43.9524 9.28687 44.8281L9.09741 45.0078C8.10891 45.9964 7.55347 47.3374 7.55347 48.7354C7.55349 50.1333 8.10888 51.4744 9.09741 52.4629L9.28687 52.6426C10.2538 53.5183 11.5142 54.0068 12.825 54.0068C14.2229 54.0068 15.5639 53.4514 16.5525 52.4629L16.7322 52.2734C17.6079 51.3065 18.0964 50.0461 18.0964 48.7354C18.0964 47.4246 17.6079 46.1643 16.7322 45.1973L16.5525 45.0078C15.5639 44.0193 14.223 43.4639 12.825 43.4639ZM48.7351 43.4639C47.4243 43.4639 46.164 43.9524 45.197 44.8281L45.0076 45.0078C44.019 45.9964 43.4636 47.3373 43.4636 48.7354C43.4636 50.1333 44.019 51.4744 45.0076 52.4629L45.197 52.6426C46.164 53.5182 47.4244 54.0068 48.7351 54.0068C50.1331 54.0068 51.4741 53.4514 52.4626 52.4629L52.6423 52.2734C53.518 51.3065 54.0066 50.0461 54.0066 48.7354C54.0066 47.4246 53.518 46.1642 52.6423 45.1973L52.4626 45.0078C51.4741 44.0193 50.1331 43.4639 48.7351 43.4639ZM22.6501 15.249C22.2387 16.9178 21.4102 18.4554 20.24 19.7148L19.9812 19.9814C18.6747 21.2879 17.0377 22.2093 15.2488 22.6504V38.9102C17.0363 39.3538 18.6723 40.2761 19.9783 41.582L20.2361 41.8496C21.4059 43.1084 22.2363 44.644 22.6501 46.3115H38.9099C39.3536 44.524 40.2758 42.888 41.5818 41.582C42.8877 40.2761 44.5238 39.3538 46.3113 38.9102V22.6494C44.6439 22.2355 43.1081 21.4061 41.8494 20.2363L41.5818 19.9785C40.2758 18.6726 39.3536 17.0365 38.9099 15.249H22.6501ZM12.825 7.55371C12.2192 7.55372 11.6187 7.65869 11.0496 7.8623L10.8074 7.95508C10.168 8.21998 9.58682 8.60825 9.09741 9.09766C8.66908 9.52599 8.31879 10.0249 8.0603 10.5713L7.95483 10.8076C7.68994 11.4471 7.55348 12.133 7.55347 12.8252C7.55347 14.2232 8.1089 15.5642 9.09741 16.5527C10.0859 17.5413 11.427 18.0967 12.825 18.0967C14.223 18.0967 15.5639 17.5413 16.5525 16.5527C17.541 15.5642 18.0964 14.2232 18.0964 12.8252C18.0964 12.2194 17.9915 11.619 17.7878 11.0498L17.6951 10.8076C17.4633 10.2483 17.1369 9.73386 16.7312 9.28613L16.5525 9.09766C16.1241 8.66933 15.6253 8.31902 15.0789 8.06055L14.8425 7.95508C14.203 7.69017 13.5172 7.55371 12.825 7.55371ZM48.7351 7.55371C47.4244 7.55371 46.164 8.04231 45.197 8.91797L45.0076 9.09766C44.019 10.0862 43.4636 11.4272 43.4636 12.8252C43.4636 14.2232 44.019 15.5642 45.0076 16.5527L45.197 16.7324C46.164 17.6081 47.4244 18.0967 48.7351 18.0967C50.1331 18.0967 51.4741 17.5413 52.4626 16.5527L52.6423 16.3633C53.518 15.3963 54.0066 14.1359 54.0066 12.8252C54.0066 11.5145 53.518 10.2541 52.6423 9.28711L52.4626 9.09766C51.4741 8.10913 50.1331 7.55374 48.7351 7.55371Z"/>
</svg>
