<svg width="63" height="63" viewBox="0 0 63 63" fill="none" xmlns="http://www.w3.org/2000/svg">
<path d="M51.6835 52.4263C50.7815 53.5276 49.6274 54.3954 48.3189 54.9561L31.2164 62.2267C29.0684 63.1331 26.6487 63.1509 24.4877 62.2763C22.3266 61.4017 20.6004 59.7059 19.6874 57.5608L16.3523 49.7626L16.313 49.7823L8.75492 32.0241L4.6737 23.8814C4.21438 22.9607 3.96219 21.9507 3.93486 20.9221C3.90753 19.8936 4.10571 18.8716 4.51549 17.9278C4.92526 16.9841 5.5367 16.1414 6.30684 15.4592C7.07699 14.7769 7.98717 14.2716 8.97346 13.9786C8.89883 12.5216 9.27749 11.0774 10.0573 9.84449C10.8372 8.6116 11.9799 7.65065 13.3283 7.09385C14.1648 6.7477 15.0612 6.56974 15.9665 6.57016H16.1633C16.229 6.39954 16.3018 6.23285 16.3819 6.0701C16.7903 5.22635 17.3652 4.47396 18.072 3.85818C18.7788 3.24241 19.6028 2.77598 20.4946 2.48698C21.1929 2.25393 21.924 2.13428 22.6602 2.1326L22.6582 2.14441C23.9499 2.14754 25.2161 2.50359 26.3201 3.17407C26.8919 2.69136 27.5626 2.33989 28.2849 2.14441C29.0852 1.92671 29.9271 1.91226 30.7343 2.10238C31.5416 2.2925 32.2886 2.68117 32.9076 3.23313C33.5848 3.44182 34.2305 3.74895 34.8231 4.15057C35.3252 3.80407 35.8981 3.54223 36.5281 3.39063H36.534C39.3296 2.72323 41.952 4.57976 42.6332 7.13913V7.14307L44.5763 14.3822C46.0076 14.0993 47.4913 14.265 48.8249 14.8566C49.3709 15.1047 49.8749 15.4118 50.3369 15.778C50.9917 15.5512 51.6859 15.4607 52.3769 15.5121C53.068 15.5636 53.7412 15.7559 54.3551 16.0773C56.9637 17.4318 57.6666 20.4597 56.6389 22.8694L56.631 22.8872L56.6231 22.9029C54.2016 28.3032 52.9416 31.591 52.7742 33.9319V33.9496L52.7722 33.9653C52.746 34.3066 52.7145 34.6636 52.6777 35.0363L55.7608 43.7559C56.3544 45.4471 56.2596 47.3038 55.4969 48.9257C54.7342 50.5476 53.3646 51.8048 51.6835 52.4263ZM48.8091 20.0522C48.4894 19.3492 47.9296 18.7831 47.2302 18.4555C46.8517 18.287 46.4436 18.195 46.0293 18.185C45.6151 18.175 45.203 18.2471 44.8168 18.3972C44.4306 18.5473 44.078 18.7724 43.7792 19.0595C43.4805 19.3466 43.2415 19.69 43.0761 20.0699L39.9261 27.4133V27.4094L39.9222 27.4133L38.2685 22.2158C38.2488 22.0583 38.2094 21.9008 38.1503 21.7433L33.8781 9.08426C33.6359 8.37329 33.1616 7.76446 32.5315 7.3557C32.0363 7.04194 31.4657 6.86717 30.8797 6.84973C30.5829 6.84811 30.2876 6.89125 30.0036 6.9777C29.6056 7.09724 29.2356 7.2956 28.9157 7.56098C28.5958 7.82637 28.3325 8.15335 28.1415 8.52251C27.9505 8.89166 27.8357 9.29545 27.8038 9.70987C27.772 10.1243 27.8238 10.5409 27.9561 10.9349L31.7716 22.2355L30.9841 22.5702L25.6685 8.21801C25.4342 7.59356 25.0188 7.05334 24.4754 6.66663C23.9555 6.30371 23.3412 6.09987 22.7075 6.07995C22.2082 6.07779 21.7158 6.19628 21.2723 6.42534C20.8287 6.65441 20.447 6.98726 20.1597 7.39556C19.8724 7.80386 19.688 8.27554 19.6223 8.77043C19.5565 9.26532 19.6112 9.76877 19.7819 10.2379L25.2393 24.9524L24.6486 25.1886H24.6447L18.896 12.4508C18.6427 11.8816 18.232 11.3966 17.7123 11.053C17.1926 10.7095 16.5855 10.5216 15.9625 10.5116C15.5727 10.5116 15.1849 10.5904 14.8246 10.738C14.4394 10.8972 14.0903 11.1324 13.7982 11.4295C13.506 11.7267 13.2768 12.0798 13.1243 12.4676C12.9717 12.8554 12.899 13.27 12.9103 13.6866C12.9217 14.1032 13.017 14.5132 13.1905 14.8921L18.9353 27.5826H18.9334L18.9353 27.5905L18.0888 27.9449L13.7575 19.3021C13.4057 18.6078 12.8033 18.073 12.0723 17.8058V17.8019C11.6702 17.6555 11.2426 17.5926 10.8154 17.617C10.3882 17.6414 9.9705 17.7525 9.5877 17.9436C8.85198 18.3149 8.29364 18.9629 8.03526 19.7454C7.77688 20.528 7.83957 21.381 8.20958 22.1174L12.344 30.3664L18.3093 44.3839L18.3486 44.3643L21.2191 51.1092L47.2341 40.0507L47.8897 41.5903L44.976 42.8306L48.1988 50.4064C48.317 50.2948 48.4298 50.1773 48.5375 50.0539C49.7187 48.6955 50.1006 46.7307 49.3525 44.9549L45.5528 36.0364C45.5725 35.5443 45.5922 35.0521 45.5922 34.5402C45.6119 31.7643 46.8128 28.0827 48.8603 22.6096C49.1753 21.7433 49.1438 20.8279 48.8091 20.0502M46.7735 51.3317L43.4345 43.4823L41.2551 44.4076L44.5803 52.2629L46.7735 51.3317ZM43.0407 52.9185L39.7135 45.0632L37.5144 45.9983L40.8593 53.8458L43.0407 52.9185ZM39.3198 54.5014L35.9729 46.6539L33.7718 47.5891L37.1266 55.4326L39.3198 54.5014ZM35.587 56.0882L32.2323 48.2447L30.0351 49.1778L33.3702 57.0292L35.587 56.0882ZM31.8306 57.6828L28.4956 49.8334L26.3103 50.7627L29.6394 58.6141L29.6847 58.5944L31.8306 57.6828ZM24.7687 51.4163L21.8747 52.6468L23.3099 56.0173C23.6966 56.9249 24.3498 57.6937 25.1829 58.2221C26.0161 58.7504 26.99 59.0134 27.9758 58.9763L24.7687 51.4163Z"/>
</svg>
