<svg width="53" height="53" viewBox="0 0 53 53" fill="none" xmlns="http://www.w3.org/2000/svg">
<path d="M29.5917 4.41699H13.2501C12.0787 4.41699 10.9553 4.88232 10.127 5.7106C9.29874 6.53889 8.83341 7.66229 8.83341 8.83366V44.167C8.83341 45.3384 9.29874 46.4618 10.127 47.29C10.9553 48.1183 12.0787 48.5837 13.2501 48.5837H39.7501C40.9215 48.5837 42.0448 48.1183 42.8731 47.29C43.7014 46.4618 44.1667 45.3384 44.1667 44.167V27.8253M4.41675 13.2503H13.2501M4.41675 22.0837H13.2501M4.41675 30.917H13.2501M4.41675 39.7503H13.2501" stroke-width="5" stroke-linecap="round" stroke-linejoin="round"/>
<path d="M47.2097 12.4238C48.0894 11.5441 48.5837 10.3509 48.5837 9.10684C48.5837 7.86276 48.0894 6.66963 47.2097 5.78993C46.33 4.91023 45.1369 4.41602 43.8928 4.41602C42.6487 4.41602 41.4556 4.91023 40.5759 5.78993L29.5122 16.8581C28.9871 17.3828 28.6028 18.0315 28.3947 18.744L26.5464 25.0819C26.4909 25.272 26.4876 25.4734 26.5367 25.6651C26.5859 25.8569 26.6856 26.0319 26.8256 26.1719C26.9656 26.3118 27.1406 26.4116 27.3323 26.4607C27.5241 26.5098 27.7255 26.5065 27.9155 26.4511L34.2534 24.6027C34.966 24.3946 35.6146 24.0103 36.1394 23.4853L47.2097 12.4238Z" stroke-width="5" stroke-linecap="round" stroke-linejoin="round"/>
</svg>
