<svg width="50" height="50" viewBox="0 0 50 50" fill="none" xmlns="http://www.w3.org/2000/svg">
<path d="M25.001 0C16.762 0 10 6.74 10 14.961C10 18.147 11.02 21.116 12.74 23.548L12.6785 23.452L22.281 40.051L22.33 40.1145C22.717 40.6195 23.1 41.0265 23.5635 41.333C24.027 41.6395 24.6205 41.833 25.2035 41.7745C26.3685 41.6575 27.0455 40.8525 27.671 40.0045L27.71 39.952L38.297 21.935L38.3055 21.92C38.559 21.4625 38.7425 21.001 38.8995 20.554C39.6253 18.7786 39.9991 16.879 40 14.961C40 6.74 33.24 0 25.001 0ZM25.001 2.5C31.878 2.5 37.5 8.109 37.5 14.961C37.4998 16.5614 37.1873 18.1463 36.58 19.627L36.5675 19.658L36.5565 19.6905C36.425 20.069 36.282 20.4125 36.117 20.7105L25.6375 38.5435C25.1735 39.1545 24.85 39.2985 24.954 39.2875C25.0075 39.2825 25.057 39.3245 24.9425 39.2485C24.833 39.1765 24.6095 38.9635 24.3445 38.6255L14.815 22.15L14.782 22.1035C13.3445 20.0735 12.5 17.615 12.5 14.961C12.5 8.1095 18.124 2.5 25.001 2.5ZM25.001 6.425C20.27 6.425 16.4435 10.238 16.4435 14.961C16.4435 19.684 20.2705 23.497 25.001 23.497C29.7315 23.497 33.5565 19.6835 33.5565 14.961C33.5565 10.2385 29.7315 6.425 25.001 6.425ZM25.001 8.925C28.4095 8.925 31.0565 11.5675 31.0565 14.961C31.0565 18.3545 28.41 20.997 25.001 20.997C21.592 20.997 18.9435 18.354 18.9435 14.961C18.9435 11.5675 21.5925 8.925 25.001 8.925Z"/>
<path d="M25.001 0C16.762 0 10 6.74 10 14.961C10 18.147 11.02 21.116 12.74 23.548L12.6785 23.452L22.281 40.051L22.33 40.1145C22.717 40.6195 23.1 41.0265 23.5635 41.333C24.027 41.6395 24.6205 41.833 25.2035 41.7745C26.3685 41.6575 27.0455 40.8525 27.671 40.0045L27.71 39.952L38.297 21.935L38.3055 21.92C38.559 21.4625 38.7425 21.001 38.8995 20.554C39.6253 18.7786 39.9991 16.879 40 14.961C40 6.74 33.24 0 25.001 0ZM25.001 2.5C31.878 2.5 37.5 8.109 37.5 14.961C37.4998 16.5614 37.1873 18.1463 36.58 19.627L36.5675 19.658L36.5565 19.6905C36.425 20.069 36.282 20.4125 36.117 20.7105L25.6375 38.5435C25.1735 39.1545 24.85 39.2985 24.954 39.2875C25.0075 39.2825 25.057 39.3245 24.9425 39.2485C24.833 39.1765 24.6095 38.9635 24.3445 38.6255L14.815 22.15L14.782 22.1035C13.3445 20.0735 12.5 17.615 12.5 14.961C12.5 8.1095 18.124 2.5 25.001 2.5ZM25.001 6.425C20.27 6.425 16.4435 10.238 16.4435 14.961C16.4435 19.684 20.2705 23.497 25.001 23.497C29.7315 23.497 33.5565 19.6835 33.5565 14.961C33.5565 10.2385 29.7315 6.425 25.001 6.425ZM25.001 8.925C28.4095 8.925 31.0565 11.5675 31.0565 14.961C31.0565 18.3545 28.41 20.997 25.001 20.997C21.592 20.997 18.9435 18.354 18.9435 14.961C18.9435 11.5675 21.5925 8.925 25.001 8.925Z"/>
<path d="M31.924 36.6768L31.2325 37.5318C32.1675 37.6448 33.0725 37.7773 33.92 37.9378L31.1805 38.7493L34.837 39.7218L37.5625 38.8623C39.2365 39.4238 41.5545 40.1103 42.3225 40.8908H36.8575L37.4005 42.4788H43.0715C43.0545 43.3738 41.4545 44.1008 39.9265 44.6898L36.051 43.8518L32.3995 45.1603L36.2995 46.0503C34.0225 46.6703 30.1995 47.0473 27.0345 47.2208L26.9015 45.4008H23.0985L22.965 47.2208C19.8 47.0473 15.9775 46.6708 13.7 46.0508L17.6005 45.1603L13.949 43.8518L10.073 44.6898C8.56702 44.2323 6.94552 43.3733 6.92852 42.4788H12.6L13.143 40.8908H7.67802C8.44602 40.1103 10.764 39.4238 12.438 38.8623L15.1635 39.7218L18.82 38.7493L16.0805 37.9378C16.9652 37.7744 17.855 37.6398 18.7485 37.5343L18.067 36.6778C10.6745 37.4463 4.53052 39.0828 2.91952 41.6673C0.350015 45.7863 9.82901 49.9298 24.685 49.9943C24.906 50.0053 25.124 49.9973 25.33 49.9943C40.1775 49.9263 49.648 45.7843 47.0805 41.6673C45.4685 39.0818 39.321 37.4448 31.924 36.6768Z"/>
<path d="M31.924 36.6768L31.2325 37.5318C32.1675 37.6448 33.0725 37.7773 33.92 37.9378L31.1805 38.7493L34.837 39.7218L37.5625 38.8623C39.2365 39.4238 41.5545 40.1103 42.3225 40.8908H36.8575L37.4005 42.4788H43.0715C43.0545 43.3738 41.4545 44.1008 39.9265 44.6898L36.051 43.8518L32.3995 45.1603L36.2995 46.0503C34.0225 46.6703 30.1995 47.0473 27.0345 47.2208L26.9015 45.4008H23.0985L22.965 47.2208C19.8 47.0473 15.9775 46.6708 13.7 46.0508L17.6005 45.1603L13.949 43.8518L10.073 44.6898C8.56702 44.2323 6.94552 43.3733 6.92852 42.4788H12.6L13.143 40.8908H7.67802C8.44602 40.1103 10.764 39.4238 12.438 38.8623L15.1635 39.7218L18.82 38.7493L16.0805 37.9378C16.9652 37.7744 17.855 37.6398 18.7485 37.5343L18.067 36.6778C10.6745 37.4463 4.53052 39.0828 2.91952 41.6673C0.350015 45.7863 9.82901 49.9298 24.685 49.9943C24.906 50.0053 25.124 49.9973 25.33 49.9943C40.1775 49.9263 49.648 45.7843 47.0805 41.6673C45.4685 39.0818 39.321 37.4448 31.924 36.6768Z"/>
</svg>
