<svg width="75" height="75" viewBox="0 0 75 75" fill="none" xmlns="http://www.w3.org/2000/svg">
<path d="M37.5 65.625C30.9375 65.625 25.1302 63.6333 20.0781 59.65C15.026 55.6667 11.7448 50.575 10.2344 44.375C10.026 43.5938 10.1823 42.8781 10.7031 42.2281C11.224 41.5781 11.9271 41.2 12.8125 41.0937C13.6458 40.9896 14.401 41.1458 15.0781 41.5625C15.7552 41.9792 16.224 42.6042 16.4844 43.4375C17.7344 48.125 20.3125 51.9531 24.2188 54.9219C28.125 57.8906 32.5521 59.375 37.5 59.375C43.5938 59.375 48.7635 57.2531 53.0094 53.0094C57.2552 48.7656 59.3771 43.5958 59.375 37.5C59.3729 31.4042 57.251 26.2354 53.0094 21.9938C48.7677 17.7521 43.5979 15.6292 37.5 15.625C33.9062 15.625 30.5469 16.4583 27.4219 18.125C24.2969 19.7917 21.6667 22.0833 19.5312 25H25C25.8854 25 26.6281 25.3 27.2281 25.9C27.8281 26.5 28.1271 27.2417 28.125 28.125C28.1229 29.0083 27.8229 29.751 27.225 30.3531C26.6271 30.9552 25.8854 31.2542 25 31.25H12.5C11.6146 31.25 10.8729 30.95 10.275 30.35C9.67708 29.75 9.37708 29.0083 9.375 28.125V15.625C9.375 14.7396 9.675 13.9979 10.275 13.4C10.875 12.8021 11.6167 12.5021 12.5 12.5C13.3833 12.4979 14.126 12.7979 14.7281 13.4C15.3302 14.0021 15.6292 14.7438 15.625 15.625V19.8438C18.2812 16.5104 21.524 13.9323 25.3531 12.1094C29.1823 10.2865 33.2313 9.375 37.5 9.375C41.4062 9.375 45.0656 10.1177 48.4781 11.6031C51.8906 13.0885 54.8594 15.0927 57.3844 17.6156C59.9094 20.1385 61.9146 23.1073 63.4 26.5219C64.8854 29.9365 65.6271 33.5958 65.625 37.5C65.6229 41.4042 64.8812 45.0635 63.4 48.4781C61.9188 51.8927 59.9135 54.8615 57.3844 57.3844C54.8552 59.9073 51.8865 61.9125 48.4781 63.4C45.0698 64.8875 41.4104 65.6292 37.5 65.625ZM40.625 36.25L48.4375 44.0625C49.0104 44.6354 49.2969 45.3646 49.2969 46.25C49.2969 47.1354 49.0104 47.8646 48.4375 48.4375C47.8646 49.0104 47.1354 49.2969 46.25 49.2969C45.3646 49.2969 44.6354 49.0104 44.0625 48.4375L35.3125 39.6875C35 39.375 34.7656 39.024 34.6094 38.6344C34.4531 38.2448 34.375 37.8406 34.375 37.4219V25C34.375 24.1146 34.675 23.3729 35.275 22.775C35.875 22.1771 36.6167 21.8771 37.5 21.875C38.3833 21.8729 39.126 22.1729 39.7281 22.775C40.3302 23.3771 40.6292 24.1187 40.625 25V36.25Z" fill="#933038"/>
</svg>
