<svg width="16" height="16" viewBox="0 0 16 16" fill="none" xmlns="http://www.w3.org/2000/svg">
<g clip-path="url(#clip0_1524_515)">
<path d="M5.24995 7.50046C5.24995 6.95657 5.41124 6.42488 5.71341 5.97265C6.01558 5.52041 6.44507 5.16794 6.94757 4.9598C7.45007 4.75165 8.003 4.6972 8.53645 4.80331C9.0699 4.90941 9.5599 5.17133 9.94449 5.55592C10.3291 5.94052 10.591 6.43052 10.6971 6.96397C10.8032 7.49741 10.7488 8.05035 10.5406 8.55284C10.3325 9.05534 9.98 9.48483 9.52777 9.78701C9.07553 10.0892 8.54385 10.2505 7.99995 10.2505C7.27061 10.2505 6.57113 9.96073 6.05541 9.44501C5.53968 8.92928 5.24995 8.22981 5.24995 7.50046ZM13.135 11.0742C13.0236 11.0096 12.8919 10.9891 12.7662 11.017C12.6404 11.045 12.5298 11.1191 12.4562 11.2248C12.3485 11.3733 12.2333 11.5162 12.1112 11.653C11.7474 11.125 11.2852 10.6722 10.75 10.3192C10.7043 10.289 10.65 10.2745 10.5953 10.2781C10.5407 10.2817 10.4887 10.3032 10.4475 10.3392C9.76822 10.927 8.90004 11.2504 8.00183 11.2504C7.10361 11.2504 6.23543 10.927 5.5562 10.3392C5.51464 10.3023 5.46197 10.2803 5.40651 10.2767C5.35104 10.2731 5.29596 10.288 5.24995 10.3192C4.71454 10.6714 4.25213 11.1237 3.88808 11.6511C3.10724 10.7743 2.62873 9.6698 2.52308 8.50046H3.48558C3.56651 8.50174 3.64659 8.48383 3.71927 8.4482C3.79194 8.41256 3.85515 8.36023 3.9037 8.29546C3.97415 8.19915 4.00784 8.08082 3.99867 7.96184C3.9895 7.84287 3.93808 7.73109 3.8537 7.64671L2.3537 6.14671C2.30726 6.10023 2.25212 6.06335 2.19142 6.03818C2.13072 6.01302 2.06566 6.00007 1.99995 6.00007C1.93424 6.00007 1.86918 6.01302 1.80848 6.03818C1.74778 6.06335 1.69264 6.10023 1.6462 6.14671L0.146201 7.64671C0.0618228 7.73109 0.0104046 7.84287 0.00123498 7.96184C-0.00793467 8.08082 0.0257489 8.19915 0.0962006 8.29546C0.144755 8.36023 0.207959 8.41256 0.280635 8.4482C0.353312 8.48383 0.433394 8.50174 0.514326 8.50046H1.5187C1.62096 9.82978 2.12952 11.0955 2.97543 12.126C3.82135 13.1565 4.96369 13.902 6.24759 14.2613C7.53149 14.6207 8.89483 14.5766 10.1528 14.1349C11.4108 13.6932 12.5025 12.8754 13.28 11.7923C13.3201 11.7365 13.3482 11.673 13.3627 11.6058C13.3771 11.5385 13.3776 11.4691 13.364 11.4017C13.3504 11.3343 13.323 11.2704 13.2836 11.2141C13.2442 11.1577 13.1936 11.1101 13.135 11.0742ZM15.9618 7.80921C15.924 7.71784 15.8599 7.63974 15.7777 7.58479C15.6955 7.52983 15.5988 7.50048 15.5 7.50046H14.4812C14.3789 6.17115 13.8704 4.90544 13.0245 3.87492C12.1786 2.8444 11.0362 2.09893 9.75231 1.73958C8.46841 1.38023 7.10507 1.42438 5.8471 1.86604C4.58914 2.3077 3.49742 3.12551 2.71995 4.20859C2.64254 4.31633 2.6111 4.45042 2.63255 4.58134C2.654 4.71226 2.72658 4.8293 2.83433 4.90671C2.94207 4.98412 3.07615 5.01556 3.20708 4.99411C3.338 4.97266 3.45504 4.90008 3.53245 4.79234C4.18656 3.88162 5.1034 3.19257 6.16012 2.81755C7.21683 2.44253 8.36292 2.39945 9.4448 2.69407C10.5267 2.9887 11.4927 3.60696 12.2133 4.466C12.934 5.32505 13.3748 6.38383 13.4768 7.50046H12.5C12.401 7.50039 12.3043 7.52967 12.222 7.5846C12.1397 7.63954 12.0755 7.71766 12.0376 7.80907C11.9998 7.90048 11.9899 8.00108 12.0092 8.09812C12.0285 8.19516 12.0762 8.28429 12.1462 8.35421L13.6462 9.85421C13.6926 9.9007 13.7478 9.93758 13.8085 9.96274C13.8692 9.98791 13.9342 10.0009 14 10.0009C14.0657 10.0009 14.1307 9.98791 14.1914 9.96274C14.2521 9.93758 14.3073 9.9007 14.3537 9.85421L15.8537 8.35421C15.9236 8.28425 15.9712 8.19513 15.9904 8.09812C16.0097 8.00111 15.9997 7.90057 15.9618 7.80921Z"/>
</g>
<defs>
<clipPath id="clip0_1524_515">
<rect width="16" height="16" fill="white"/>
</clipPath>
</defs>
</svg>
