<svg width="70" height="70" viewBox="0 0 70 70" fill="none" xmlns="http://www.w3.org/2000/svg">
<path d="M8.75 30.3831C8.75 21.0556 8.75 16.3918 9.8525 14.8227C10.9521 13.2564 15.3358 11.7543 24.1063 8.75308L25.7775 8.18141C30.3479 6.61516 32.6317 5.8335 35 5.8335C37.3683 5.8335 39.6521 6.61516 44.2225 8.18141L45.8938 8.75308C54.6642 11.7543 59.0479 13.2564 60.1475 14.8227C61.25 16.3918 61.25 21.0585 61.25 30.3831V34.9739C61.25 51.4181 48.8863 59.401 41.1279 62.7872C39.025 63.706 37.975 64.1668 35 64.1668C32.025 64.1668 30.975 63.706 28.8721 62.7872C21.1138 59.3981 8.75 51.421 8.75 34.9739V30.3831Z" />
<path d="M8.75 32.0835L35 23.3335L61.25 32.0835M35 5.8335V62.7085" />
</svg>
