<svg width="70" height="70" viewBox="0 0 70 70" fill="none" xmlns="http://www.w3.org/2000/svg">
<path d="M25.4421 5.98225C29.6537 4.54141 32.2671 3.646 35 3.646C37.7329 3.646 40.3463 4.54141 44.5579 5.98225L46.6783 6.71141C50.9979 8.18725 54.3346 9.33058 56.7204 10.2989C57.9221 10.786 58.9575 11.2614 59.7888 11.7427C60.5908 12.2093 61.3929 12.7897 61.9383 13.5685C62.4779 14.3356 62.7579 15.2806 62.9329 16.1935C63.1167 17.1385 63.2246 18.2731 63.2975 19.5768C63.4375 22.161 63.4375 25.7077 63.4375 30.3043V34.9739C63.4375 52.7685 49.9975 61.2997 42.0058 64.7939L41.9271 64.826C40.9354 65.2606 40.0021 65.666 38.9317 65.9402C37.8029 66.2318 36.6013 66.3543 35 66.3543C33.3958 66.3543 32.2 66.2318 31.0683 65.9402C29.9979 65.666 29.0646 65.2606 28.0729 64.826L27.9942 64.7939C20.0025 61.2997 6.5625 52.7685 6.5625 34.971V30.3043C6.5625 25.7077 6.5625 22.161 6.7025 19.5739C6.77542 18.2731 6.88333 17.1385 7.06708 16.1906C7.24208 15.2806 7.52208 14.3356 8.05875 13.5656C8.60708 12.7897 9.40917 12.2093 10.2112 11.7427C11.0425 11.2614 12.0779 10.786 13.2796 10.2989C15.6654 9.33058 19.0021 8.18725 23.3217 6.71141L25.4421 5.98225ZM32.8125 8.27766C31.36 8.59266 29.5021 9.21683 26.4833 10.2493L24.815 10.821C20.4021 12.3318 17.185 13.4343 14.9275 14.3502C14.0617 14.6852 13.2197 15.0789 12.4075 15.5285C12.197 15.6508 11.9944 15.7862 11.8008 15.9339C11.743 15.9774 11.6892 16.0263 11.6404 16.0797C11.6021 16.1484 11.5708 16.2207 11.5471 16.2956C11.4888 16.455 11.4275 16.6961 11.3633 17.0189C11.2021 17.9425 11.1046 18.8761 11.0717 19.8131C10.9521 22.0297 10.9375 25.0339 10.9375 29.0472L32.8125 21.7556V8.27766ZM37.1875 8.27766V21.7556L59.0625 29.0472C59.0625 25.0339 59.0479 22.0268 58.9283 19.8131C58.8954 18.8761 58.7979 17.9425 58.6367 17.0189C58.5909 16.7741 58.5295 16.5325 58.4529 16.2956C58.4292 16.2207 58.3979 16.1484 58.3596 16.0797C58.3108 16.0263 58.2571 15.9774 58.1992 15.9339C58.0057 15.7852 57.8031 15.6489 57.5925 15.5256C56.7801 15.078 55.9382 14.6862 55.0725 14.3531C52.815 13.4343 49.5979 12.3318 45.185 10.8239L43.5137 10.2493C40.4979 9.21683 38.64 8.59266 37.1875 8.27766ZM32.8125 26.3697L10.9375 33.6614V34.9739C10.9375 50.0706 22.225 57.4993 29.7471 60.7835C30.8292 61.256 31.4563 61.5243 32.1533 61.7022C32.3536 61.7547 32.5733 61.8004 32.8125 61.8393V26.3697ZM37.1875 61.8393V26.3697L59.0625 33.6614V34.9739C59.0625 50.0706 47.775 57.4993 40.2529 60.7835C39.1708 61.256 38.5438 61.5243 37.8467 61.7022C37.6464 61.7547 37.4267 61.8004 37.1875 61.8393Z" />
</svg>
