<svg width="65" height="65" viewBox="0 0 65 65" xmlns="http://www.w3.org/2000/svg">
<path d="M50.7812 38.5937C49.3269 38.5931 47.8937 38.9414 46.6019 39.6094L41.1709 35.3844C41.4661 34.5074 41.6245 33.5902 41.6406 32.665L44.2685 31.7916C45.7549 33.3009 47.7193 34.2471 49.8259 34.4684C51.9326 34.6898 54.0508 34.1726 55.8184 33.0053C57.586 31.838 58.8933 30.0929 59.5168 28.0685C60.1404 26.0441 60.0415 23.8659 59.2369 21.9064C58.4324 19.9468 56.9723 18.3275 55.1062 17.3252C53.24 16.3229 51.0837 15.9999 49.0057 16.4113C46.9278 16.8228 45.0573 17.9432 43.7139 19.581C42.3705 21.2188 41.6376 23.2723 41.6406 25.3906C41.6406 25.6725 41.6558 25.9518 41.6812 26.2285L39.7058 26.8861C38.852 25.789 37.7592 24.9011 36.5105 24.29C35.2618 23.6788 33.8902 23.3605 32.5 23.3594C32.2461 23.3594 32.0226 23.3594 31.7865 23.3898L30.6566 20.8508C32.1988 19.3881 33.183 17.4337 33.4399 15.3238C33.6969 13.2139 33.2106 11.0805 32.0646 9.29039C30.9186 7.50032 29.1846 6.16558 27.1609 5.51577C25.1371 4.86597 22.9502 4.94172 20.9763 5.73C19.0024 6.51828 17.365 7.96981 16.3456 9.83489C15.3262 11.7 14.9886 13.862 15.391 15.949C15.7933 18.0361 16.9104 19.9177 18.5501 21.2701C20.1898 22.6226 22.2495 23.3614 24.375 23.3594C24.6289 23.3594 24.8523 23.3594 25.0884 23.3289L26.2183 25.868C24.8797 27.1316 23.9549 28.7708 23.5657 30.57C23.1764 32.3692 23.3408 34.2441 24.0373 35.948L18.6341 40.7494C16.7463 39.7073 14.5509 39.3662 12.4359 39.7863C10.3208 40.2065 8.42247 41.3608 7.07627 43.0453C5.73007 44.7298 5.02275 46.836 5.07932 48.9916C5.1359 51.1472 5.95273 53.2134 7.38543 54.825C8.81814 56.4365 10.7745 57.4897 12.9086 57.7983C15.0427 58.1069 17.2173 57.6511 19.0478 56.5114C20.8784 55.3718 22.2471 53.6216 22.912 51.5704C23.5769 49.5191 23.4953 47.2988 22.6814 45.3019L28.0845 40.5006C29.5247 41.2975 31.1537 41.6897 32.7988 41.6357C34.4438 41.5816 36.0436 41.0832 37.4283 40.1934L42.4023 44.068C41.6127 45.8712 41.4263 47.8812 41.871 49.7989C42.3156 51.7166 43.3675 53.4395 44.87 54.7113C46.3726 55.9831 48.2456 56.7359 50.2104 56.8575C52.1752 56.9792 54.1268 56.4633 55.7748 55.3866C57.4229 54.3099 58.6792 52.7299 59.3571 50.8817C60.0349 49.0335 60.0979 47.0159 59.5368 45.129C58.9757 43.2421 57.8205 41.5868 56.2429 40.4093C54.6653 39.2318 52.7498 38.595 50.7812 38.5937ZM50.7812 22.3437C51.3838 22.3437 51.9729 22.5224 52.474 22.8572C52.975 23.192 53.3655 23.6679 53.5962 24.2246C53.8268 24.7814 53.8871 25.394 53.7695 25.985C53.652 26.5761 53.3618 27.119 52.9357 27.5451C52.5096 27.9712 51.9667 28.2614 51.3756 28.379C50.7846 28.4965 50.172 28.4362 49.6152 28.2056C49.0585 27.975 48.5826 27.5844 48.2478 27.0834C47.913 26.5823 47.7343 25.9932 47.7343 25.3906C47.7343 24.5825 48.0554 23.8076 48.6268 23.2362C49.1982 22.6648 49.9731 22.3437 50.7812 22.3437ZM21.3281 14.2187C21.3281 13.6161 21.5068 13.0271 21.8416 12.526C22.1764 12.0249 22.6522 11.6344 23.209 11.4038C23.7657 11.1732 24.3783 11.1129 24.9694 11.2304C25.5604 11.348 26.1033 11.6382 26.5294 12.0643C26.9555 12.4904 27.2457 13.0333 27.3633 13.6243C27.4809 14.2154 27.4205 14.828 27.1899 15.3847C26.9593 15.9415 26.5688 16.4173 26.0677 16.7521C25.5667 17.0869 24.9776 17.2656 24.375 17.2656C23.5669 17.2656 22.7919 16.9446 22.2205 16.3732C21.6491 15.8018 21.3281 15.0268 21.3281 14.2187ZM14.2187 51.7969C13.6161 51.7969 13.027 51.6182 12.526 51.2834C12.0249 50.9486 11.6344 50.4727 11.4038 49.916C11.1732 49.3592 11.1128 48.7466 11.2304 48.1556C11.3479 47.5645 11.6381 47.0216 12.0642 46.5955C12.4904 46.1694 13.0333 45.8792 13.6243 45.7617C14.2153 45.6441 14.828 45.7044 15.3847 45.9351C15.9414 46.1657 16.4173 46.5562 16.7521 47.0572C17.0869 47.5583 17.2656 48.1474 17.2656 48.75C17.2656 49.5581 16.9446 50.3331 16.3732 50.9045C15.8018 51.4759 15.0268 51.7969 14.2187 51.7969ZM29.4531 32.5C29.4531 31.8974 29.6318 31.3083 29.9666 30.8072C30.3014 30.3062 30.7772 29.9157 31.334 29.6851C31.8907 29.4544 32.5033 29.3941 33.0944 29.5117C33.6854 29.6292 34.2283 29.9194 34.6544 30.3455C35.0805 30.7716 35.3707 31.3145 35.4883 31.9056C35.6059 32.4966 35.5455 33.1092 35.3149 33.666C35.0843 34.2227 34.6938 34.6986 34.1927 35.0334C33.6917 35.3682 33.1026 35.5469 32.5 35.5469C31.6919 35.5469 30.9169 35.2259 30.3455 34.6545C29.7741 34.0831 29.4531 33.3081 29.4531 32.5ZM50.7812 50.7812C50.1786 50.7812 49.5895 50.6026 49.0885 50.2678C48.5874 49.933 48.1969 49.4571 47.9663 48.9004C47.7357 48.3436 47.6753 47.731 47.7929 47.14C47.9104 46.5489 48.2006 46.006 48.6268 45.5799C49.0529 45.1538 49.5958 44.8636 50.1868 44.746C50.7778 44.6285 51.3905 44.6888 51.9472 44.9194C52.5039 45.15 52.9798 45.5406 53.3146 46.0416C53.6494 46.5427 53.8281 47.1318 53.8281 47.7344C53.8281 48.5425 53.5071 49.3174 52.9357 49.8888C52.3643 50.4602 51.5893 50.7812 50.7812 50.7812Z"/>
</svg>
