<svg width="45" height="60" viewBox="0 0 45 60" fill="none" xmlns="http://www.w3.org/2000/svg">
<g clip-path="url(#clip0_631_1485)">
<path d="M3.75 0C1.67578 0 0 1.67578 0 3.75C0 5.82422 1.67578 7.5 3.75 7.5V8.78906C3.75 13.7578 5.73047 18.5273 9.24609 22.043L17.1914 30L9.24609 37.957C5.73047 41.4727 3.75 46.2422 3.75 51.2109V52.5C1.67578 52.5 0 54.1758 0 56.25C0 58.3242 1.67578 60 3.75 60H41.25C43.3242 60 45 58.3242 45 56.25C45 54.1758 43.3242 52.5 41.25 52.5V51.2109C41.25 46.2422 39.2695 41.4727 35.7539 37.957L27.8086 30L35.7656 22.043C39.2812 18.5273 41.2617 13.7578 41.2617 8.78906V7.5C43.3359 7.5 45.0117 5.82422 45.0117 3.75C45.0117 1.67578 43.3359 0 41.2617 0H3.75ZM33.75 51.2109V52.5H11.25V51.2109C11.25 48.2227 12.4336 45.3633 14.543 43.2539L22.5 35.3086L30.457 43.2656C32.5664 45.375 33.75 48.2344 33.75 51.2227V51.2109Z"/>
</g>
<defs>
<clipPath id="clip0_631_1485">
<rect width="45" height="60" fill="white"/>
</clipPath>
</defs>
</svg>
