<svg width="457" height="457" viewBox="0 0 457 457" fill="none" xmlns="http://www.w3.org/2000/svg">
<path fill-rule="evenodd" clip-rule="evenodd" d="M228.333 2.50878e-09C258.318 -0.000140553 288.01 5.90576 315.713 17.3805C343.415 28.8552 368.587 45.6741 389.789 66.8768C410.992 88.0795 427.811 113.251 439.286 140.953C450.761 168.656 456.667 198.348 456.667 228.333C456.667 354.438 354.438 456.667 228.333 456.667C102.229 456.667 0 354.438 0 228.333C0 102.229 102.229 2.50878e-09 228.333 2.50878e-09ZM251.167 251.167H205.5C148.971 251.167 100.44 285.403 79.5082 334.275C112.628 380.717 166.944 411 228.333 411C289.722 411 344.038 380.717 377.159 334.271C356.227 285.403 307.696 251.167 251.167 251.167ZM228.333 68.5C190.502 68.5 159.833 99.1687 159.833 137C159.833 174.831 190.502 205.5 228.333 205.5C266.164 205.5 296.833 174.831 296.833 137C296.833 99.1687 266.165 68.5 228.333 68.5Z"/>
</svg>
