<svg width="16" height="16" viewBox="0 0 16 16" fill="none" xmlns="http://www.w3.org/2000/svg">
<g clip-path="url(#clip0_1139_517)">
<path d="M8 0.5C8 0.367392 8.05268 0.240215 8.14645 0.146447C8.24021 0.0526784 8.36739 0 8.5 0L12.5 0C12.6326 0 12.7598 0.0526784 12.8536 0.146447C12.9473 0.240215 13 0.367392 13 0.5C13 0.632608 12.9473 0.759785 12.8536 0.853553C12.7598 0.947322 12.6326 1 12.5 1H11V15H12.5C12.6326 15 12.7598 15.0527 12.8536 15.1464C12.9473 15.2402 13 15.3674 13 15.5C13 15.6326 12.9473 15.7598 12.8536 15.8536C12.7598 15.9473 12.6326 16 12.5 16H8.5C8.36739 16 8.24021 15.9473 8.14645 15.8536C8.05268 15.7598 8 15.6326 8 15.5C8 15.3674 8.05268 15.2402 8.14645 15.1464C8.24021 15.0527 8.36739 15 8.5 15H10V1H8.5C8.36739 1 8.24021 0.947322 8.14645 0.853553C8.05268 0.759785 8 0.632608 8 0.5Z"/>
<path fill-rule="evenodd" clip-rule="evenodd" d="M5.45998 4.31013C5.42179 4.21911 5.35758 4.1414 5.27538 4.08674C5.19319 4.03209 5.09668 4.00293 4.99798 4.00293C4.89927 4.00293 4.80276 4.03209 4.72057 4.08674C4.63837 4.1414 4.57416 4.21911 4.53597 4.31013L2.03598 10.3101C1.98492 10.4325 1.98458 10.5702 2.03503 10.6928C2.08547 10.8155 2.18258 10.9131 2.30498 10.9641C2.42737 11.0152 2.56504 11.0155 2.68769 10.9651C2.81034 10.9146 2.90792 10.8175 2.95898 10.6951L3.66398 9.00513H6.33398L7.03898 10.6951C7.09003 10.8175 7.18761 10.9146 7.31026 10.9651C7.43291 11.0155 7.57058 11.0152 7.69298 10.9641C7.81537 10.9131 7.91248 10.8155 7.96292 10.6928C8.01337 10.5702 8.01303 10.4325 7.96198 10.3101L5.46197 4.31013H5.45998ZM4.99798 5.80013L5.91497 8.00013H4.08498L5.00197 5.80013H4.99798Z"/>
<path d="M8.49999 3C8.6326 3 8.75978 2.94732 8.85354 2.85355C8.94731 2.75979 8.99999 2.63261 8.99999 2.5C8.99999 2.36739 8.94731 2.24021 8.85354 2.14645C8.75978 2.05268 8.6326 2 8.49999 2H4.79999C3.11999 2 2.27999 2 1.63999 2.327C1.07686 2.61564 0.618629 3.07387 0.329991 3.637C0.00299075 4.279 0.00299072 5.117 0.00299072 6.797V9.197C0.00299072 10.877 0.00299075 11.717 0.329991 12.357C0.618629 12.9201 1.07686 13.3784 1.63999 13.667C2.28199 13.994 3.11999 13.994 4.79999 13.994H8.49999C8.6326 13.994 8.75978 13.9413 8.85354 13.8476C8.94731 13.7538 8.99999 13.6266 8.99999 13.494C8.99999 13.3614 8.94731 13.2342 8.85354 13.1404C8.75978 13.0467 8.6326 12.994 8.49999 12.994H4.79999C3.94299 12.994 3.35999 12.994 2.90999 12.956C2.47199 12.921 2.24699 12.856 2.09099 12.776C1.71468 12.5843 1.40873 12.2783 1.21699 11.902C1.13699 11.746 1.07199 11.522 1.03699 11.083C0.999991 10.633 0.998991 10.053 0.998991 9.193V6.793C0.998991 5.936 0.999991 5.353 1.03699 4.903C1.07299 4.465 1.13799 4.24 1.21699 4.084C1.40899 3.708 1.71499 3.402 2.09099 3.21C2.24699 3.13 2.47199 3.065 2.90999 3.03C3.35999 2.994 3.93999 2.993 4.79999 2.993H8.49999V3ZM12.5 13C12.3679 13.0026 12.242 13.0568 12.1493 13.151C12.0567 13.2452 12.0045 13.3719 12.004 13.504C12.004 13.782 12.23 14.007 12.508 14C13.371 13.98 13.918 13.91 14.368 13.682C14.9319 13.3945 15.3905 12.9359 15.678 12.372C16.005 11.73 16.005 10.892 16.005 9.212V6.812C16.005 5.132 16.005 4.292 15.678 3.652C15.3905 3.08806 14.9319 2.62952 14.368 2.342C13.919 2.113 13.373 2.044 12.508 2.024C12.4421 2.02267 12.3766 2.03452 12.3154 2.05888C12.2542 2.08323 12.1984 2.11959 12.1515 2.1658C12.1045 2.21202 12.0673 2.26717 12.0419 2.328C12.0166 2.38883 12.0037 2.45411 12.004 2.52C12.004 2.795 12.226 3.017 12.5 3.024C12.722 3.02867 12.9193 3.03833 13.092 3.053C13.53 3.088 13.755 3.153 13.911 3.233C14.287 3.425 14.593 3.731 14.785 4.107C14.865 4.263 14.93 4.487 14.965 4.926C15.002 5.376 15.003 5.956 15.003 6.816V9.216C15.003 10.073 15.002 10.656 14.965 11.106C14.929 11.544 14.864 11.769 14.785 11.925C14.5932 12.3013 14.2873 12.6073 13.911 12.799C13.755 12.879 13.53 12.944 13.092 12.979C12.9187 12.9923 12.7213 13.0017 12.5 13.007V13Z"/>
</g>
<defs>
<clipPath id="clip0_1139_517">
<rect width="16" height="16" fill="white"/>
</clipPath>
</defs>
</svg>
