<svg width="50" height="50" viewBox="0 0 50 50" fill="none" xmlns="http://www.w3.org/2000/svg">
<path d="M42.7083 4.1665H7.29166C6.46285 4.1665 5.668 4.49574 5.08195 5.0818C4.4959 5.66785 4.16666 6.4627 4.16666 7.2915V42.7082C4.16666 43.537 4.4959 44.3318 5.08195 44.9179C5.668 45.5039 6.46285 45.8332 7.29166 45.8332H42.7083C43.5371 45.8332 44.332 45.5039 44.918 44.9179C45.5041 44.3318 45.8333 43.537 45.8333 42.7082V7.2915C45.8333 6.4627 45.5041 5.66785 44.918 5.0818C44.332 4.49574 43.5371 4.1665 42.7083 4.1665Z" stroke-width="4.16667" stroke-linejoin="round"/>
<path d="M12.5 19.8477C15.9632 15.681 20.1299 13.5977 25 13.5977C29.8694 13.5977 34.0361 15.681 37.5 19.8477" stroke-width="4.16667" stroke-linecap="round"/>
<path d="M25 32.2915C25.8288 32.2915 26.6237 31.9623 27.2097 31.3762C27.7958 30.7902 28.125 29.9953 28.125 29.1665C28.125 28.3377 27.7958 27.5428 27.2097 26.9568C26.6237 26.3707 25.8288 26.0415 25 26.0415C24.1712 26.0415 23.3763 26.3707 22.7903 26.9568C22.2042 27.5428 21.875 28.3377 21.875 29.1665C21.875 29.9953 22.2042 30.7902 22.7903 31.3762C23.3763 31.9623 24.1712 32.2915 25 32.2915Z"/>
<path d="M19.7917 21.875L25.0083 29.1667" stroke-width="4.16667" stroke-linecap="round"/>
</svg>
