<svg width="60" height="60" viewBox="0 0 60 60" fill="none" xmlns="http://www.w3.org/2000/svg">
<path d="M21.25 22.5C16.9402 22.5 12.807 24.212 9.75951 27.2595C6.71205 30.307 5 34.4402 5 38.75C5 40.884 5.42032 42.9971 6.23696 44.9686C7.0536 46.9401 8.25056 48.7315 9.75951 50.2405C12.807 53.2879 16.9402 55 21.25 55C23.384 55 25.4971 54.5797 27.4686 53.763C29.4401 52.9464 31.2315 51.7494 32.7405 50.2405C34.2494 48.7315 35.4464 46.9401 36.263 44.9686C37.0797 42.9971 37.5 40.884 37.5 38.75V34.775L55 30V22.5H27.5V27.5H22.5V22.5H21.25ZM27.5 5V17.5H22.5V5H27.5ZM15.875 18.2C14.2 18.6 12.6 19.2 11.075 20L5.35 12.2L9.4 9.25L15.875 18.2ZM44.65 12.2L40.8 17.5H34.625L40.6 9.25L44.65 12.2Z"/>
</svg>
